<svg width="82" height="95" viewBox="0 0 82 95" xmlns="http://www.w3.org/2000/svg">
  <path d="M81.2101 55.4001L76.5101 28.4001C76.3101 27.0001 75.2101 25.9001 73.9101 25.5001C72.8101 25.2001 71.7101 25.4001 70.9101 26.0001C70.0101 26.6001 69.5101 27.6001 69.4101 28.7001L68.1101 44.5001C68.8101 44.8001 69.6101 45.2001 70.2101 45.8001C72.4101 48.0001 72.7101 51.5001 70.7101 54.0001L62.9101 63.9001C62.3101 64.7001 61.1101 64.8001 60.3101 64.2001C59.5101 63.6001 59.3101 62.4001 60.0101 61.6001L67.8101 51.7001C68.5101 50.7001 68.5101 49.3001 67.6101 48.5001C67.1101 48.0001 66.5101 47.8001 65.9101 47.8001C65.4101 47.8001 64.9101 48.0001 64.4101 48.3001L53.1101 56.6001C50.9101 58.2001 49.4101 60.7001 49.1101 63.4001L47.1101 78.9001H68.2101L78.2101 66.9001C80.8101 63.7001 81.9101 59.5001 81.2101 55.4001Z"/>
  <path d="M68.51 82.6001H46.11C44.91 82.6001 43.91 83.6001 43.91 84.8001V92.8001C43.91 94.0001 44.91 95.0001 46.11 95.0001H68.51C69.71 95.0001 70.71 94.0001 70.71 92.8001V84.8001C70.61 83.6001 69.71 82.6001 68.51 82.6001Z"/>
  <path d="M34.2101 78.9001L32.2101 63.4001C31.8101 60.7001 30.4101 58.2001 28.2101 56.6001L16.9101 48.3001C15.9101 47.6001 14.6101 47.7001 13.7101 48.5001C12.8101 49.4001 12.7101 50.8001 13.5101 51.7001L21.3101 61.6001C21.9101 62.4001 21.8101 63.6001 21.0101 64.2001C20.2101 64.8001 19.0101 64.7001 18.4101 63.9001L10.6101 54.0001C8.71006 51.5001 8.91006 48.0001 11.1101 45.8001C11.7101 45.2001 12.4101 44.7001 13.2101 44.5001L12.0101 28.7001C11.9101 27.6001 11.4101 26.7001 10.5101 26.0001C9.61006 25.4001 8.51006 25.2001 7.51006 25.5001C6.11006 25.9001 5.11006 27.0001 4.91006 28.4001L0.210056 55.4001C-0.489944 59.5001 0.610056 63.7001 3.31006 66.9001L13.3101 78.9001H34.2101Z"/>
  <path d="M35.11 82.6001H12.71C11.51 82.6001 10.51 83.6001 10.51 84.8001V92.8001C10.51 94.0001 11.51 95.0001 12.71 95.0001H35.11C36.31 95.0001 37.31 94.0001 37.31 92.8001V84.8001C37.31 83.6001 36.31 82.6001 35.11 82.6001Z"/>
  <path d="M49.81 43.5C49.81 39.4 46.51 36.1 42.41 36.1H38.81C37.21 36.1 35.81 34.8 35.81 33.1C35.81 31.4 37.11 30.1 38.81 30.1H42.41C44.01 30.1 45.41 31.4 45.41 33.1H49.81C49.81 29.2 46.71 26 42.81 25.8V22H38.41V25.8C34.51 26 31.41 29.2 31.41 33.1C31.41 37.2 34.71 40.5 38.81 40.5H42.41C44.01 40.5 45.41 41.8 45.41 43.5C45.41 45.2 44.11 46.5 42.41 46.5H38.81C37.21 46.5 35.81 45.2 35.81 43.5H31.41C31.41 47.4 34.51 50.6 38.41 50.8V54.6H42.81V50.8C46.71 50.6 49.81 47.4 49.81 43.5Z"/>
  <path d="M40.61 13.6C41.81 13.6 42.81 12.6 42.81 11.4V2.2C42.81 1 41.81 0 40.61 0C39.41 0 38.41 1 38.41 2.2V11.4C38.41 12.6 39.41 13.6 40.61 13.6Z"/>
  <path d="M51.81 15.8002C52.11 15.9002 52.41 16.0002 52.61 16.0002C53.51 16.0002 54.31 15.5002 54.61 14.6002L58.11 6.10022C58.61 5.00022 58.01 3.70022 56.91 3.20022C55.81 2.70022 54.51 3.30022 54.01 4.40022L50.61 13.0002C50.11 14.1002 50.71 15.4002 51.81 15.8002Z"/>
  <path d="M62.81 22.7998C63.41 22.7998 63.91 22.5998 64.41 22.1998L70.91 15.6998C71.81 14.7998 71.81 13.4998 70.91 12.5998C70.01 11.6998 68.71 11.6998 67.81 12.5998L61.31 19.0998C60.41 19.9998 60.41 21.2998 61.31 22.1998C61.71 22.5998 62.21 22.7998 62.81 22.7998Z"/>
  <path d="M26.61 14.6002C26.91 15.4002 27.81 16.0002 28.61 16.0002C28.91 16.0002 29.21 15.9002 29.41 15.8002C30.51 15.3002 31.11 14.1002 30.61 12.9002L27.11 4.40022C26.61 3.30022 25.31 2.70022 24.21 3.20022C23.11 3.70022 22.51 4.90022 23.01 6.10022L26.61 14.6002Z"/>
  <path d="M16.81 22.2002C17.21 22.6002 17.81 22.8002 18.41 22.8002C19.01 22.8002 19.51 22.6002 20.01 22.2002C20.91 21.3002 20.91 20.0002 20.01 19.1002L13.41 12.5002C12.51 11.6002 11.21 11.6002 10.31 12.5002C9.41001 13.4002 9.41001 14.7002 10.31 15.6002L16.81 22.2002Z"/>
</svg>