<svg width="84" height="96" viewBox="0 0 84 96" xmlns="http://www.w3.org/2000/svg">
  <path d="M42 -0.00195312C40.9 -0.00195312 40 0.898047 40 1.99805V9.99805C40 11.098 40.9 11.998 42 11.998C43.1 11.998 44 11.098 44 9.99805V1.99805C44 0.898047 43.1 -0.00195312 42 -0.00195312ZM13.72 11.7181C13.21 11.7181 12.7 11.918 12.31 12.308C11.53 13.088 11.53 14.338 12.31 15.118L17.97 20.7781C18.75 21.5581 20 21.5581 20.78 20.7781C21.56 19.9981 21.56 18.7481 20.78 17.9681L15.12 12.308C14.73 11.918 14.23 11.7181 13.72 11.7181ZM70.28 11.7181C69.77 11.7181 69.26 11.918 68.87 12.308L63.21 17.9681C62.43 18.7481 62.43 19.9981 63.21 20.7781C63.99 21.5581 65.24 21.5581 66.02 20.7781L71.68 15.118C72.46 14.338 72.46 13.088 71.68 12.308C71.3 11.918 70.79 11.7181 70.28 11.7181ZM42 17.998C29.8 17.998 18 27.4581 18 40.8381C18 57.2081 29.56 61.378 30.88 71.998H53.13C54.45 61.378 66.01 57.2181 66.01 40.8381C66 27.4581 54.2 17.998 42 17.998ZM39.78 23.1281C41.08 23.0681 42.19 23.7281 42.16 25.0381C42.19 26.0881 41.27 27.0681 40.22 27.0981C32.76 27.9681 27 34.288 27 41.998C27 43.538 27.23 45.0081 27.66 46.4081C28.08 47.4381 27.44 48.7381 26.38 49.0681C25.32 49.3881 24.07 48.6581 23.85 47.5681C23.31 45.7981 23.01 43.9481 23.01 42.0081C23 32.2781 30.34 24.2281 39.78 23.1281ZM2 39.998C0.9 39.998 0 40.898 0 41.998C0 43.098 0.9 43.998 2 43.998H10C11.1 43.998 12 43.098 12 41.998C12 40.898 11.1 39.998 10 39.998H2ZM74 39.998C72.9 39.998 72 40.898 72 41.998C72 43.098 72.9 43.998 74 43.998H82C83.1 43.998 84 43.098 84 41.998C84 40.898 83.1 39.998 82 39.998H74ZM31 75.998V79.998H53V75.998H31ZM31 83.998V85.998C31 88.298 32.89 89.998 35 89.998H38V91.998C38 94.218 39.78 95.998 42 95.998C44.22 95.998 46 94.218 46 91.998V89.998H49C51.11 89.998 53 88.298 53 85.998V83.998H31Z"/>
</svg>