<svg width="95" height="92" viewBox="0 0 95 92" xmlns="http://www.w3.org/2000/svg">
  <path d="M20.6084 62.1001H12.6084C6.70844 62.1001 1.80844 66.5001 1.10844 72.3001L0.00843918 81.6001C-0.0915608 82.8001 0.708439 84.0001 1.80844 84.2001C6.40844 85.2001 11.4084 85.7001 16.6084 85.7001C18.5084 85.7001 20.4084 85.6001 22.1084 85.5001V85.4001L23.5084 74.0001C24.0084 70.4001 25.4084 67.1001 27.5084 64.5001C25.6084 63.0001 23.2084 62.1001 20.6084 62.1001Z"/>
  <path d="M93.8084 72.3001C93.1084 66.5001 88.2084 62.1001 82.3084 62.1001H74.3084C71.8084 62.1001 69.4084 62.9001 67.5084 64.5001C69.6084 67.2001 71.0084 70.4001 71.4084 74.0001L72.7084 85.5001V85.6001C74.5084 85.7001 76.3084 85.8001 78.2084 85.8001C83.4084 85.8001 88.3084 85.3001 93.0084 84.3001C94.2084 84.0001 95.0084 82.9001 94.8084 81.7001L93.8084 72.3001Z"/>
  <path d="M16.6084 58.2001C22.573 58.2001 27.4083 53.3648 27.4083 47.4001C27.4083 41.4354 22.573 36.6001 16.6084 36.6001C10.6437 36.6001 5.80835 41.4354 5.80835 47.4001C5.80835 53.3648 10.6437 58.2001 16.6084 58.2001Z"/>
  <path d="M78.4084 58.2001C84.3731 58.2001 89.2084 53.3648 89.2084 47.4001C89.2084 41.4354 84.3731 36.6001 78.4084 36.6001C72.4437 36.6001 67.6084 41.4354 67.6084 47.4001C67.6084 53.3648 72.4437 58.2001 78.4084 58.2001Z"/>
  <path d="M52.4085 62.2002H42.5085C35.4085 62.2002 29.4085 67.5002 28.5085 74.6002L27.1085 86.1002C26.9085 87.6002 27.9085 89.0002 29.3085 89.3002C35.0085 90.5002 41.1085 91.2002 47.4085 91.2002C53.7085 91.2002 59.8085 90.6002 65.5085 89.3002C67.0085 89.0002 67.9085 87.6002 67.8085 86.1002L66.4085 74.6002C65.6085 67.6002 59.6085 62.2002 52.4085 62.2002Z"/>
  <path d="M47.5085 57.8002C54.8539 57.8002 60.8085 51.8456 60.8085 44.5002C60.8085 37.1548 54.8539 31.2002 47.5085 31.2002C40.1631 31.2002 34.2085 37.1548 34.2085 44.5002C34.2085 51.8456 40.1631 57.8002 47.5085 57.8002Z"/>
  <path d="M35.1084 24C39.6084 24 43.5084 21.5 45.6084 17.8H51.0084C51.3084 17.8 51.5084 17.7 51.7084 17.5L55.2084 14L58.3084 17.1C58.7084 17.5 59.3084 17.5 59.7084 17.1L62.7084 14L65.8084 17.1C66.2084 17.5 66.8084 17.5 67.2084 17.1L71.7084 12.7C72.1084 12.3 72.1084 11.7 71.7084 11.3L66.8084 6.5C66.6084 6.3 66.4084 6.2 66.1084 6.2H45.6084C43.5084 2.5 39.6084 0 35.1084 0C28.5084 0 23.1084 5.4 23.1084 12C23.1084 18.7 28.5084 24 35.1084 24ZM31.0084 8.6C32.9084 8.6 34.4084 10.1 34.4084 12C34.4084 13.9 32.9084 15.4 31.0084 15.4C29.1084 15.4 27.6084 13.9 27.6084 12C27.6084 10.1 29.1084 8.6 31.0084 8.6Z"/>
</svg>