<svg width="160" height="53" viewBox="0 0 160 53" fill="none" xmlns="http://www.w3.org/2000/svg">
<path d="M13.5167 10.7517C21.3124 10.7517 27.0334 15.8746 27.0334 23.9701C27.0334 32.0656 21.3124 37.1885 13.5167 37.1885C5.72102 37.1885 0 32.0656 0 23.9701C0 15.8746 5.72102 10.7517 13.5167 10.7517ZM13.5167 32.0656C18.2318 32.0656 21.3124 28.6503 21.3124 23.9701C21.3124 19.2899 18.2318 15.8746 13.5167 15.8746C8.80157 15.8746 5.72102 19.2899 5.72102 23.9701C5.72102 28.6503 8.80157 32.0656 13.5167 32.0656Z" fill="white"/>
<path d="M29.8625 18.0882H35.0177V20.4916H35.0806C35.9607 19.1634 38.0982 17.6455 40.613 17.6455C45.9568 17.6455 49.4774 21.5035 49.4774 27.0059C49.4774 32.0656 46.334 36.6825 41.2417 36.6825C38.9155 36.6825 36.778 36.05 35.5206 34.2792H35.4578V44.7147H29.8625V18.0882ZM39.4185 31.7493C42.1847 31.7493 43.8821 29.852 43.8821 27.1324C43.8821 24.4128 42.1847 22.5154 39.4185 22.5154C36.6523 22.5154 34.9548 24.4128 34.9548 27.1324C34.9548 29.852 36.6523 31.7493 39.4185 31.7493Z" fill="white"/>
<path d="M70.4755 33.8366C68.6523 36.1767 65.6975 37.5048 62.7427 37.5048C57.0845 37.5048 52.558 33.7101 52.558 27.8282C52.558 21.9464 57.0845 18.1516 62.7427 18.1516C68.0236 18.1516 71.3556 21.9464 71.3556 27.8282V29.5991H58.2161C58.6562 31.7495 60.2908 33.1409 62.4912 33.1409C64.3144 33.1409 65.5717 32.1922 66.5148 30.9273L70.4755 33.8366ZM65.6975 25.7411C65.7603 23.8437 64.2515 22.2626 62.2397 22.2626C59.725 22.2626 58.4047 23.9702 58.2161 25.7411H65.6975Z" fill="white"/>
<path d="M74.7505 18.9737H80.22V21.5036H80.2829C81.0373 20.0489 82.9234 18.531 85.6896 18.531C91.4735 18.531 92.5422 22.3258 92.5422 27.3222V37.568H86.8841V28.3974C86.8841 26.247 86.8212 23.5274 83.9293 23.5274C80.9745 23.5274 80.5344 25.8675 80.5344 28.2709V37.5048H74.8762V18.9737H74.7505Z" fill="white"/>
<path d="M98.0118 11.3843H103.293V40.9833H98.0118V11.3843Z" fill="white"/>
<path d="M121.462 34.6586H121.399C120.142 36.6825 117.815 37.5047 115.489 37.5047C111.969 37.5047 108.825 35.4808 108.825 31.6861C108.825 25.1717 116.684 25.1085 121.462 25.1085C121.462 23.0846 119.764 21.7565 117.753 21.7565C115.866 21.7565 114.295 22.5787 113.1 23.9701L110.02 20.8078C112.157 18.7839 115.175 17.772 118.255 17.772C124.982 17.772 126.806 21.1872 126.806 27.4486V36.9987H121.525V34.6586H121.462ZM120.016 28.84C118.255 28.84 114.358 28.9665 114.358 31.5596C114.358 32.951 115.804 33.5834 117.061 33.5834C119.324 33.5834 121.462 32.3818 121.462 30.0417V28.7767H120.016V28.84Z" fill="white"/>
<path d="M129.132 19.6062H134.978L138.625 30.864H138.688L141.705 19.6062H147.741L151.01 30.864H151.073L154.405 19.6062H160L153.65 37.5048H148.244L144.534 25.6146H144.471L141.202 37.5048H135.67L129.132 19.6062Z" fill="white"/>
<path d="M103.293 4.99642H69.2181C68.4008 2.08711 65.7603 0 62.6169 0C58.7819 0 55.6385 3.16229 55.6385 7.02029C55.6385 10.8783 58.7819 14.0406 62.6169 14.0406C65.8232 14.0406 68.5894 11.827 69.3438 8.85441H103.356V4.99642H103.293ZM62.6169 10.9415C60.4794 10.9415 58.719 9.17064 58.719 7.02029C58.719 4.86993 60.4794 3.09905 62.6169 3.09905C64.7544 3.09905 66.5147 4.86993 66.5147 7.02029C66.5147 9.23389 64.7544 10.9415 62.6169 10.9415Z" fill="#00A8B3"/>
<path d="M138.75 38.8962C135.544 38.8962 132.778 41.1098 132.024 44.0824H98.0118V47.9404H132.086C132.967 50.8497 135.607 52.9368 138.75 52.9368C142.585 52.9368 145.729 49.7745 145.729 45.9165C145.729 42.0585 142.585 38.8962 138.75 38.8962ZM138.75 49.901C136.613 49.901 134.853 48.1301 134.853 45.9798C134.853 43.8294 136.613 42.0585 138.75 42.0585C140.888 42.0585 142.648 43.8294 142.648 45.9798C142.648 48.1301 140.888 49.901 138.75 49.901Z" fill="#00A8B3"/>
</svg>
