<svg width="19" height="18" viewBox="0 0 19 18" fill="none" xmlns="http://www.w3.org/2000/svg">
<g clip-path="url(#clip0)">
<path d="M7.38042 0C3.29374 0 0 3.19737 0 7.16447C0 11.1316 3.29374 14.3289 7.38042 14.3289C11.4671 14.3289 14.7608 11.1316 14.7608 7.16447C14.7608 3.19737 11.4671 0 7.38042 0ZM7.38042 12.6118C4.33066 12.6118 1.86035 10.2138 1.86035 7.25329C1.86035 4.29276 4.33066 1.89474 7.38042 1.89474C10.4302 1.89474 12.9005 4.29276 12.9005 7.25329C12.9005 10.2138 10.4302 12.6118 7.38042 12.6118Z" fill="#a36633"/>
<path d="M17.4141 17.852L11.3756 12.4638C11.1621 12.2862 11.1621 11.9605 11.3451 11.7237L12.0465 10.9836C12.2295 10.7763 12.565 10.7763 12.809 10.954L18.8475 16.3421C19.061 16.5197 19.061 16.8454 18.878 17.0822L18.1765 17.8224C17.963 18.0296 17.6276 18.0592 17.4141 17.852Z" fill="#a36633"/>
</g>
<defs>
<clipPath id="clip0">
<rect width="19" height="18" fill="white"/>
</clipPath>
</defs>
</svg>
